#tb 0: 1/192000
#media_type 0: audio
#codec_id 0: pcm_s16le
#sample_rate 0: 192000
#channel_layout_name 0: 5.1(side)
0,          0,          0,     2048,    24576, 0x00000000
0,       2048,       2048,     2048,    24576, 0x00000000
0,       4096,       4096,     2048,    24576, 0x004b62f1
0,       6144,       6144,     2048,    24576, 0x66edba5f
0,       8192,       8192,     2048,    24576, 0xf2aa3d4b
0,      10240,      10240,     2048,    24576, 0xa6741aff
